<?xml version="1.0" standalone="no"?>
<!DOCTYPE svg PUBLIC "-//W3C//DTD SVG 20010904//EN"
 "http://www.w3.org/TR/2001/REC-SVG-20010904/DTD/svg10.dtd">
<svg version="1.0" xmlns="http://www.w3.org/2000/svg"
 width="400.000000pt" height="400.000000pt" viewBox="0 0 400.000000 400.000000"
 preserveAspectRatio="xMidYMid meet">

<g transform="translate(0.000000,400.000000) scale(0.100000,-0.100000)"
fill="#000000" stroke="none">
<path d="M1764 3382 c-177 -53 -307 -163 -384 -327 -53 -111 -69 -198 -80
-435 -10 -230 -24 -300 -77 -410 -29 -58 -56 -94 -123 -160 -47 -47 -108 -102
-136 -122 -27 -20 -86 -65 -132 -99 -192 -144 -284 -292 -307 -501 -7 -57 9
-190 27 -237 73 -186 182 -303 347 -372 317 -133 683 28 807 357 32 85 42 161
54 389 5 105 16 221 25 259 16 76 69 188 117 248 38 49 140 136 243 208 231
162 350 315 386 498 15 80 7 218 -18 292 -63 186 -211 338 -393 401 -91 31
-269 36 -356 11z"/>
<path d="M2702 1945 c-340 -77 -545 -408 -462 -744 33 -133 115 -262 215 -336
254 -189 581 -170 803 47 125 123 184 263 183 438 -1 257 -167 486 -418 577
-85 31 -230 39 -321 18z"/>
</g>
</svg>
